<svg xmlns="http://www.w3.org/2000/svg" xmlns:xlink="http://www.w3.org/1999/xlink" viewBox="0 0 1046.28 319.7"><defs><style>.cls-1{isolation:isolate;}.cls-2{fill:url(#linear-gradient);}.cls-10,.cls-11,.cls-12,.cls-13,.cls-14,.cls-15,.cls-16,.cls-17,.cls-18,.cls-19,.cls-20,.cls-21,.cls-3,.cls-4,.cls-5,.cls-6,.cls-7,.cls-8,.cls-9{opacity:0.81;mix-blend-mode:soft-light;}.cls-3{fill:url(#linear-gradient-2);}.cls-4{fill:url(#linear-gradient-3);}.cls-5{fill:url(#linear-gradient-4);}.cls-6{fill:url(#linear-gradient-5);}.cls-7{fill:url(#linear-gradient-6);}.cls-8{fill:url(#linear-gradient-7);}.cls-9{fill:url(#linear-gradient-8);}.cls-10{fill:url(#linear-gradient-9);}.cls-11{fill:url(#linear-gradient-10);}.cls-12{fill:url(#linear-gradient-11);}.cls-13{fill:url(#linear-gradient-12);}.cls-14{fill:url(#linear-gradient-13);}.cls-15{fill:url(#linear-gradient-14);}.cls-16{fill:url(#linear-gradient-15);}.cls-17{fill:url(#linear-gradient-16);}.cls-18{fill:url(#linear-gradient-17);}.cls-19{fill:url(#linear-gradient-18);}.cls-20{fill:url(#linear-gradient-19);}.cls-21{fill:url(#linear-gradient-20);}</style><linearGradient id="linear-gradient" x1="1046.28" y1="159.85" x2="0" y2="159.85" gradientUnits="userSpaceOnUse"><stop offset="0" stop-color="#fff"/><stop offset="0.44" stop-color="#aff089"/><stop offset="1" stop-color="#56bfa1"/></linearGradient><linearGradient id="linear-gradient-2" x1="517.04" y1="-155.63" x2="735.35" y2="62.68" gradientUnits="userSpaceOnUse"><stop offset="0" stop-color="#ddd"/><stop offset="1" stop-color="#373737"/></linearGradient><linearGradient id="linear-gradient-3" x1="-72.67" y1="-175.08" x2="170.99" y2="68.57" xlink:href="#linear-gradient-2"/><linearGradient id="linear-gradient-4" x1="-22.04" y1="18.99" x2="164.13" y2="205.16" xlink:href="#linear-gradient-2"/><linearGradient id="linear-gradient-5" x1="575.72" y1="244.92" x2="575.72" y2="-158.35" xlink:href="#linear-gradient-2"/><linearGradient id="linear-gradient-6" x1="575.72" y1="48.61" x2="575.72" y2="-350.05" xlink:href="#linear-gradient-2"/><linearGradient id="linear-gradient-7" x1="142.81" y1="36.44" x2="501.76" y2="395.39" xlink:href="#linear-gradient-2"/><linearGradient id="linear-gradient-8" x1="182.91" y1="578.38" x2="182.91" y2="-88.53" xlink:href="#linear-gradient-2"/><linearGradient id="linear-gradient-9" x1="480.26" y1="-263.83" x2="480.26" y2="293.56" xlink:href="#linear-gradient-2"/><linearGradient id="linear-gradient-10" x1="460.71" y1="425.59" x2="460.71" y2="-123.7" xlink:href="#linear-gradient-2"/><linearGradient id="linear-gradient-11" x1="735.56" y1="523.6" x2="735.56" y2="-105.82" xlink:href="#linear-gradient-2"/><linearGradient id="linear-gradient-12" x1="53.05" y1="-36.85" x2="258.42" y2="168.52" xlink:href="#linear-gradient-2"/><linearGradient id="linear-gradient-13" x1="346.38" y1="112.76" x2="346.38" y2="-357.41" xlink:href="#linear-gradient-2"/><linearGradient id="linear-gradient-14" x1="120.96" y1="-22.94" x2="327.27" y2="183.37" xlink:href="#linear-gradient-2"/><linearGradient id="linear-gradient-15" x1="851.84" y1="564.04" x2="851.84" y2="-146.26" xlink:href="#linear-gradient-2"/><linearGradient id="linear-gradient-16" x1="962.32" y1="24.11" x2="962.32" y2="694.83" xlink:href="#linear-gradient-2"/><linearGradient id="linear-gradient-17" x1="73.23" y1="554.98" x2="73.23" y2="194.01" xlink:href="#linear-gradient-2"/><linearGradient id="linear-gradient-18" x1="-105.38" y1="39.06" x2="123.65" y2="268.1" xlink:href="#linear-gradient-2"/><linearGradient id="linear-gradient-19" x1="566.28" y1="642.77" x2="566.28" y2="149.42" xlink:href="#linear-gradient-2"/><linearGradient id="linear-gradient-20" x1="376.98" y1="683.89" x2="376.98" y2="244.92" xlink:href="#linear-gradient-2"/></defs><title>Untitled-2</title><g class="cls-1"><g id="Layer_1" data-name="Layer 1"><rect class="cls-2" width="1046.28" height="319.7"/><polygon class="cls-3" points="585.92 0 672.67 62.33 759.41 0 585.92 0"/><polygon class="cls-4" points="9.49 0 102.41 66.76 195.33 0 9.49 0"/><polygon class="cls-5" points="20.98 0 0 15.07 0 306.2 224.14 145.15 224.14 0 20.98 0"/><polygon class="cls-6" points="355.34 0 295.1 43.28 575.73 244.92 856.34 43.28 796.09 0 355.34 0"/><polygon class="cls-7" points="508.07 0 575.73 48.61 643.38 0 508.07 0"/><polygon class="cls-8" points="373.97 0 265.22 0 0 190.57 0 246.92 101.28 319.69 537.93 319.69 678.4 218.75 373.97 0"/><polygon class="cls-9" points="104.58 0 0 0 0 315.52 5.81 319.69 365.81 319.69 365.81 187.7 104.58 0"/><polygon class="cls-10" points="319.6 0 319.6 62.69 640.92 293.57 640.92 0 319.6 0"/><polygon class="cls-11" points="644.47 319.69 806.54 203.24 806.54 98.66 669.25 0 324.93 0 114.88 150.94 349.73 319.69 644.47 319.69"/><polygon class="cls-12" points="1046.28 26.01 1010.08 0 715.54 0 424.84 208.88 579.06 319.69 1046.28 319.69 1046.28 26.01"/><polygon class="cls-13" points="86.93 0 86.93 250.11 342.98 66.13 342.98 0 86.93 0"/><polygon class="cls-14" points="267.91 0 424.84 112.76 424.84 0 267.91 0"/><polygon class="cls-15" points="130.24 0 130.24 290.85 448.41 62.22 448.41 0 130.24 0"/><polygon class="cls-16" points="1046.28 133.18 860.94 0 657.39 0 657.39 269.82 726.79 319.69 1046.28 319.69 1046.28 133.18"/><polygon class="cls-17" points="1046.28 144.77 878.35 24.11 878.35 319.69 1046.28 319.69 1046.28 144.77"/><polygon class="cls-18" points="0 214.46 0 319.69 146.45 319.69 0 214.46"/><polygon class="cls-19" points="0 28.67 0 319.69 17.52 319.69 211.27 180.47 0 28.67"/><polygon class="cls-20" points="803.24 319.69 566.28 149.42 329.32 319.69 803.24 319.69"/><polygon class="cls-21" points="481.05 319.69 376.99 244.92 272.92 319.69 481.05 319.69"/></g></g></svg>